HIERARCHY
ROOT joint_0
{
	OFFSET 0.000000 0.000000 0.000000
	CHANNELS 6 Xposition Yposition Zposition Zrotation Yrotation Xrotation 
	JOINT joint_1
	{
		OFFSET 6.590088 -1.122192 114.019043
		CHANNELS 3 Zrotation Yrotation Xrotation
		JOINT joint_2
		{
			OFFSET -5.956055 -0.820435 104.151001
			CHANNELS 3 Zrotation Yrotation Xrotation
			JOINT joint_3
			{
				OFFSET -7.343506 -1.103027 103.942993
				CHANNELS 3 Zrotation Yrotation Xrotation
				JOINT joint_4
				{
					OFFSET 3.109131 -2.857056 147.715942
					CHANNELS 3 Zrotation Yrotation Xrotation
					JOINT joint_5
					{
						OFFSET 28.592285 -2.852295 87.703979
						CHANNELS 3 Zrotation Yrotation Xrotation
						End Site
						{
							OFFSET 0.000000 0.000000 0.000000
						}
					}
				}
				JOINT joint_6
				{
					OFFSET -0.332520 -33.687378 82.401978
					CHANNELS 3 Zrotation Yrotation Xrotation
					JOINT joint_7
					{
						OFFSET -7.397461 -168.719177 -22.750977
						CHANNELS 3 Zrotation Yrotation Xrotation
						JOINT joint_8
						{
							OFFSET 17.065918 -24.903137 -272.721069
							CHANNELS 3 Zrotation Yrotation Xrotation
							JOINT joint_9
							{
								OFFSET 33.311279 -37.031616 -278.192993
								CHANNELS 3 Zrotation Yrotation Xrotation
								End Site
								{
									OFFSET 0.000000 0.000000 0.000000
								}
							}
						}
					}
				}
				JOINT joint_10
				{
					OFFSET 3.914307 30.461670 83.552979
					CHANNELS 3 Zrotation Yrotation Xrotation
					JOINT joint_11
					{
						OFFSET 15.543701 166.845459 -30.963013
						CHANNELS 3 Zrotation Yrotation Xrotation
						JOINT joint_12
						{
							OFFSET 35.734863 35.017700 -269.786011
							CHANNELS 3 Zrotation Yrotation Xrotation
							JOINT joint_13
							{
								OFFSET 70.506592 13.977783 -273.320007
								CHANNELS 3 Zrotation Yrotation Xrotation
								End Site
								{
									OFFSET 0.000000 0.000000 0.000000
								}
							}
						}
					}
				}
			}
		}
	}
	JOINT joint_14
	{
		OFFSET -0.314697 -95.093994 -116.004028
		CHANNELS 3 Zrotation Yrotation Xrotation
		JOINT joint_15
		{
			OFFSET -22.490723 2.017883 -455.510986
			CHANNELS 3 Zrotation Yrotation Xrotation
			JOINT joint_16
			{
				OFFSET -46.427490 7.144104 -496.360985
				CHANNELS 3 Zrotation Yrotation Xrotation
				JOINT joint_17
				{
					OFFSET 209.055420 -37.122803 -85.191002
					CHANNELS 3 Zrotation Yrotation Xrotation
					End Site
					{
						OFFSET 0.000000 0.000000 0.000000
					}
				}
			}
		}
	}
	JOINT joint_18
	{
		OFFSET 5.652832 94.642578 -116.244019
		CHANNELS 3 Zrotation Yrotation Xrotation
		JOINT joint_19
		{
			OFFSET -12.379883 -7.332642 -455.843994
			CHANNELS 3 Zrotation Yrotation Xrotation
			JOINT joint_20
			{
				OFFSET -45.227051 -8.172241 -496.457985
				CHANNELS 3 Zrotation Yrotation Xrotation
				JOINT joint_21
				{
					OFFSET 210.522949 -11.530396 -88.809004
					CHANNELS 3 Zrotation Yrotation Xrotation
					End Site
					{
						OFFSET 0.000000 0.000000 0.000000
					}
				}
			}
		}
	}
}
MOTION
Frames: 5
Frame Time: 0.016667
-2130.593750 1006.977844 1183.139038 13.572111 11.370086 6.684183 -1.675418 5.911824 -1.446021 -0.062593 -1.163010 0.425741 0.139818 1.287965 -0.161040 1.611940 -15.868208 -4.889515 0.000000 0.000000 0.000000 -1.978044 2.106656 -2.219319 -7.039652 4.019566 -12.749253 2.206021 -80.447100 19.916687 0.000000 0.000000 0.000000 5.783258 -6.224571 4.667477 7.148700 -5.855733 10.321142 -8.919123 -77.755696 -32.050358 0.000000 0.000000 0.000000 3.720345 -30.482316 -10.194008 4.057023 24.095932 -1.163337 5.841135 2.167777 2.649222 0.000000 0.000000 0.000000 -4.108072 -23.984896 3.986205 -6.960687 47.577653 -9.116770 -7.711877 24.025265 -1.448976 0.000000 0.000000 0.000000 
-2109.928467 1005.314636 1174.584961 13.920083 10.685050 6.714095 -1.644674 5.666921 -1.819959 0.132844 -1.140048 0.457403 0.366308 1.236553 -0.221670 1.596569 -15.194508 -4.876019 0.000000 0.000000 0.000000 -1.839343 1.591104 -2.583269 -7.800116 3.668073 -13.742077 1.510930 -80.959622 20.557750 0.000000 0.000000 0.000000 5.587877 -7.084180 4.286830 7.383068 -6.730414 10.828035 -9.040475 -77.930477 -33.211621 0.000000 0.000000 0.000000 4.130658 -29.898646 -9.716118 3.562682 25.799005 -1.827737 5.541774 -0.888835 1.954637 0.000000 0.000000 0.000000 -3.640148 -26.404869 4.756344 -7.303271 52.823876 -9.827520 -7.020843 21.982119 -1.393715 0.000000 0.000000 0.000000 
-2090.865967 1004.056030 1164.845947 13.981297 9.917240 6.481872 -1.154260 4.758253 -1.985933 0.311011 -0.891009 0.415366 0.484676 0.981434 -0.272328 1.566049 -14.271687 -4.976240 0.000000 0.000000 0.000000 -1.577572 0.833907 -2.907029 -8.458145 3.051201 -15.017942 0.703847 -81.684483 19.867587 0.000000 0.000000 0.000000 4.971644 -8.250288 3.699982 7.724037 -7.801475 10.707935 -9.043571 -77.809001 -34.395622 0.000000 0.000000 0.000000 4.229790 -30.264654 -9.060934 2.941872 31.077527 -2.059328 5.911532 -4.864266 1.337083 0.000000 0.000000 0.000000 -3.237933 -29.067456 5.818794 -7.582199 58.056527 -10.384033 -5.717079 18.350840 -1.272348 0.000000 0.000000 0.000000 
-2073.507568 1003.293762 1156.913940 14.019171 9.097745 6.093649 -0.771457 4.156116 -2.027073 0.385951 -0.728705 0.415555 0.493009 0.733657 -0.290710 1.566337 -13.531275 -5.182239 0.000000 0.000000 0.000000 -1.416819 -0.225029 -3.033877 -8.762359 2.037997 -16.095283 0.195469 -81.446639 19.070541 0.000000 0.000000 0.000000 4.370879 -9.644013 3.198275 7.942553 -8.934646 9.897336 -8.999771 -76.692519 -35.153215 0.000000 0.000000 0.000000 4.235226 -30.248249 -8.521323 2.370033 35.437989 -1.881929 6.323784 -7.590761 0.963562 0.000000 0.000000 0.000000 -2.837197 -31.751384 6.821190 -7.789032 62.199427 -10.417304 -4.164733 14.945402 -1.036961 0.000000 0.000000 0.000000 
-2058.345215 1003.064087 1152.020996 14.068909 8.384407 5.349313 -0.615270 3.799867 -1.586813 0.303698 -0.640321 0.359384 0.370933 0.670752 -0.222795 1.640740 -13.203970 -5.586893 0.000000 0.000000 0.000000 -1.521492 -1.825060 -2.973917 -8.584416 0.385607 -16.602411 0.310070 -79.848027 18.856451 0.000000 0.000000 0.000000 3.870107 -11.450217 2.716331 7.913298 -10.264022 8.289736 -8.926634 -73.870062 -35.136298 0.000000 0.000000 0.000000 4.358056 -29.679896 -8.039851 1.925881 37.549117 -1.076400 6.481114 -8.767919 0.787528 0.000000 0.000000 0.000000 -2.191968 -34.716638 7.810632 -7.748858 64.961999 -9.647178 -1.838183 12.346654 -0.447773 0.000000 0.000000 0.000000 
